<svg width="18" height="20" viewBox="0 0 18 20" fill="none" xmlns="http://www.w3.org/2000/svg">
<path d="M2 20C1.45 20 0.979333 19.8043 0.588 19.413C0.196667 19.0217 0.000666667 18.5507 0 18V4C0 3.45 0.196 2.97933 0.588 2.588C0.98 2.19667 1.45067 2.00067 2 2H3V0H5V2H13V0H15V2H16C16.55 2 17.021 2.196 17.413 2.588C17.805 2.98 18.0007 3.45067 18 4V18C18 18.55 17.8043 19.021 17.413 19.413C17.0217 19.805 16.5507 20.0007 16 20H2ZM16 18V4H2V18H16ZM6 16H7.5V12C7.93333 11.8833 8.29167 11.646 8.575 11.288C8.85833 10.93 9 10.5257 9 10.075V6H8V9.775H7.25V6H6.25V9.775H5.5V6H4.5V10.075C4.5 10.525 4.64167 10.9293 4.925 11.288C5.20833 11.6467 5.56667 11.884 6 12V16ZM12 16H13.5V6C12.6667 6 11.9583 6.29167 11.375 6.875C10.7917 7.45833 10.5 8.16667 10.5 9V12H12V16Z" fill="#FC9158"/>
</svg>
