<svg width="15" height="17" viewBox="0 0 15 17" fill="none" xmlns="http://www.w3.org/2000/svg">
<path d="M10.6928 8.83743C11.9239 9.41857 12.9736 10.3238 13.7293 11.4561C14.4851 12.5884 14.9184 13.9051 14.9828 15.2649C14.9914 15.3895 14.975 15.5145 14.9346 15.6327C14.8942 15.7508 14.8306 15.8597 14.7476 15.9529C14.6645 16.0461 14.5637 16.1219 14.451 16.1756C14.3383 16.2293 14.216 16.26 14.0913 16.2658C13.9665 16.2717 13.8419 16.2525 13.7247 16.2095C13.6075 16.1665 13.5 16.1006 13.4086 16.0155C13.3173 15.9304 13.2438 15.8279 13.1926 15.7141C13.1413 15.6002 13.1134 15.4773 13.1103 15.3524C13.0421 13.9081 12.4204 12.5455 11.3742 11.5474C10.3279 10.5493 8.93748 9.99253 7.49154 9.99253C6.04559 9.99253 4.65517 10.5493 3.60891 11.5474C2.56266 12.5455 1.94093 13.9081 1.87278 15.3524C1.85595 15.5969 1.74405 15.8251 1.56106 15.9881C1.37807 16.1511 1.13853 16.2359 0.89374 16.2245C0.64895 16.2131 0.418369 16.1062 0.251376 15.9269C0.0843819 15.7475 -0.00574884 15.5099 0.000284498 15.2649C0.0645716 13.9052 0.497694 12.5887 1.25322 11.4564C2.00874 10.3241 3.05818 9.41874 4.28904 8.83743C3.5003 8.17955 2.93337 7.29466 2.66535 6.30315C2.39733 5.31164 2.44125 4.26164 2.79112 3.29598C3.14099 2.33031 3.77983 1.49585 4.62074 0.90612C5.46165 0.316386 6.46382 0 7.49091 0C8.518 0 9.52017 0.316386 10.3611 0.90612C11.202 1.49585 11.8408 2.33031 12.1907 3.29598C12.5406 4.26164 12.5845 5.31164 12.3165 6.30315C12.0485 7.29466 11.4815 8.17955 10.6928 8.83743ZM10.6165 4.99618C10.6165 4.16738 10.2873 3.37253 9.70124 2.78648C9.11519 2.20042 8.32034 1.87118 7.49154 1.87118C6.66273 1.87118 5.86788 2.20042 5.28183 2.78648C4.69577 3.37253 4.36654 4.16738 4.36654 4.99618C4.36654 5.82499 4.69577 6.61984 5.28183 7.20589C5.86788 7.79194 6.66273 8.12118 7.49154 8.12118C8.32034 8.12118 9.11519 7.79194 9.70124 7.20589C10.2873 6.61984 10.6165 5.82499 10.6165 4.99618Z" fill="#FC9158"/>
</svg>
